<mxfile host="app.diagrams.net" modified="2024-02-21T11:03:00.200Z" agent="Mozilla/5.0 (Windows NT 10.0; Win64; x64) AppleWebKit/537.36 (KHTML, like Gecko) Chrome/121.0.0.0 Safari/537.36" etag="6hjMCLBXZneergejybkm" version="23.1.5" type="github">
  <diagram name="Page-1" id="qguU9orFIGmRgSX8mLvT">
    <mxGraphModel dx="1120" dy="434" grid="1" gridSize="10" guides="1" tooltips="1" connect="1" arrows="1" fold="1" page="1" pageScale="1" pageWidth="850" pageHeight="1100" math="0" shadow="0">
      <root>
        <mxCell id="0" />
        <mxCell id="1" parent="0" />
        <mxCell id="BpnKxdFNf17R3gG-kiFD-73" value="Glioma Grading Clinical and Mutation Features&lt;br&gt;Dataset" style="shape=cylinder3;whiteSpace=wrap;html=1;boundedLbl=1;backgroundOutline=1;size=15;" vertex="1" parent="1">
          <mxGeometry x="70" y="75" width="90" height="130" as="geometry" />
        </mxCell>
        <mxCell id="BpnKxdFNf17R3gG-kiFD-74" value="weighted undirected graph" style="html=1;dashed=0;whiteSpace=wrap;" vertex="1" parent="1">
          <mxGeometry x="510" y="117.5" width="70" height="55" as="geometry" />
        </mxCell>
        <mxCell id="BpnKxdFNf17R3gG-kiFD-75" value="" style="endArrow=classic;html=1;rounded=0;exitX=1;exitY=0.5;exitDx=0;exitDy=0;entryX=0.908;entryY=0.983;entryDx=0;entryDy=0;entryPerimeter=0;" edge="1" parent="1" source="BpnKxdFNf17R3gG-kiFD-78" target="BpnKxdFNf17R3gG-kiFD-76">
          <mxGeometry width="50" height="50" relative="1" as="geometry">
            <mxPoint x="290" y="190" as="sourcePoint" />
            <mxPoint x="510" y="200" as="targetPoint" />
          </mxGeometry>
        </mxCell>
        <mxCell id="BpnKxdFNf17R3gG-kiFD-76" value="&lt;b&gt;Adjacency Matrix&lt;/b&gt;" style="text;html=1;align=center;verticalAlign=middle;resizable=0;points=[];autosize=1;strokeColor=none;fillColor=none;" vertex="1" parent="1">
          <mxGeometry x="400" y="117.5" width="120" height="30" as="geometry" />
        </mxCell>
        <mxCell id="BpnKxdFNf17R3gG-kiFD-77" value="" style="endArrow=classic;html=1;rounded=0;" edge="1" parent="1">
          <mxGeometry width="50" height="50" relative="1" as="geometry">
            <mxPoint x="160" y="139.5" as="sourcePoint" />
            <mxPoint x="220" y="139.5" as="targetPoint" />
          </mxGeometry>
        </mxCell>
        <mxCell id="BpnKxdFNf17R3gG-kiFD-78" value="Data Preprocessing(handling missing values, categorizing continuous variables, and normalizing numerical features&lt;br&gt;)" style="shape=process;whiteSpace=wrap;html=1;backgroundOutline=1;" vertex="1" parent="1">
          <mxGeometry x="220" y="85" width="170" height="120" as="geometry" />
        </mxCell>
        <mxCell id="BpnKxdFNf17R3gG-kiFD-79" value="" style="endArrow=classic;html=1;rounded=0;exitX=1;exitY=0.5;exitDx=0;exitDy=0;entryX=0;entryY=0.591;entryDx=0;entryDy=0;entryPerimeter=0;" edge="1" parent="1" source="BpnKxdFNf17R3gG-kiFD-74" target="BpnKxdFNf17R3gG-kiFD-81">
          <mxGeometry width="50" height="50" relative="1" as="geometry">
            <mxPoint x="390" y="290" as="sourcePoint" />
            <mxPoint x="680" y="200" as="targetPoint" />
          </mxGeometry>
        </mxCell>
        <mxCell id="BpnKxdFNf17R3gG-kiFD-80" value="&lt;b&gt;Graph &lt;br&gt;Construction&lt;/b&gt;" style="text;html=1;align=center;verticalAlign=middle;resizable=0;points=[];autosize=1;strokeColor=none;fillColor=none;" vertex="1" parent="1">
          <mxGeometry x="580" y="110.5" width="100" height="40" as="geometry" />
        </mxCell>
        <mxCell id="BpnKxdFNf17R3gG-kiFD-81" value="Node Embedding using GCN" style="html=1;dashed=0;whiteSpace=wrap;" vertex="1" parent="1">
          <mxGeometry x="695" y="112.5" width="90" height="55" as="geometry" />
        </mxCell>
        <mxCell id="BpnKxdFNf17R3gG-kiFD-82" value="patients and&lt;br&gt;&amp;nbsp;features" style="text;html=1;align=center;verticalAlign=middle;resizable=0;points=[];autosize=1;strokeColor=none;fillColor=none;" vertex="1" parent="1">
          <mxGeometry x="510" y="400" width="90" height="40" as="geometry" />
        </mxCell>
        <mxCell id="BpnKxdFNf17R3gG-kiFD-83" value="" style="endArrow=classic;html=1;rounded=0;exitX=0.5;exitY=1;exitDx=0;exitDy=0;entryX=0.5;entryY=0;entryDx=0;entryDy=0;" edge="1" parent="1" source="BpnKxdFNf17R3gG-kiFD-81" target="BpnKxdFNf17R3gG-kiFD-84">
          <mxGeometry width="50" height="50" relative="1" as="geometry">
            <mxPoint x="620" y="340" as="sourcePoint" />
            <mxPoint x="735" y="320" as="targetPoint" />
            <Array as="points">
              <mxPoint x="740" y="320" />
            </Array>
          </mxGeometry>
        </mxCell>
        <mxCell id="BpnKxdFNf17R3gG-kiFD-84" value="Node Attribute Encoding" style="rounded=0;whiteSpace=wrap;html=1;" vertex="1" parent="1">
          <mxGeometry x="680" y="340" width="120" height="50" as="geometry" />
        </mxCell>
        <mxCell id="BpnKxdFNf17R3gG-kiFD-85" value="by assigning node attributes &lt;br&gt;corresponding to &lt;br&gt;the clinical and molecular&lt;br&gt;features" style="text;html=1;align=left;verticalAlign=middle;resizable=0;points=[];autosize=1;strokeColor=none;fillColor=none;" vertex="1" parent="1">
          <mxGeometry x="680" y="400" width="170" height="70" as="geometry" />
        </mxCell>
        <mxCell id="BpnKxdFNf17R3gG-kiFD-86" value="Edge Encoding" style="rounded=0;whiteSpace=wrap;html=1;" vertex="1" parent="1">
          <mxGeometry x="520" y="340" width="80" height="60" as="geometry" />
        </mxCell>
        <mxCell id="BpnKxdFNf17R3gG-kiFD-87" value="" style="endArrow=classic;html=1;rounded=0;entryX=1;entryY=0.5;entryDx=0;entryDy=0;exitX=0;exitY=0.6;exitDx=0;exitDy=0;exitPerimeter=0;" edge="1" parent="1" source="BpnKxdFNf17R3gG-kiFD-84" target="BpnKxdFNf17R3gG-kiFD-86">
          <mxGeometry width="50" height="50" relative="1" as="geometry">
            <mxPoint x="750" y="300" as="sourcePoint" />
            <mxPoint x="800" y="250" as="targetPoint" />
          </mxGeometry>
        </mxCell>
        <mxCell id="BpnKxdFNf17R3gG-kiFD-88" value="" style="endArrow=classic;html=1;rounded=0;exitX=0;exitY=0.5;exitDx=0;exitDy=0;" edge="1" parent="1" source="BpnKxdFNf17R3gG-kiFD-86">
          <mxGeometry width="50" height="50" relative="1" as="geometry">
            <mxPoint x="750" y="300" as="sourcePoint" />
            <mxPoint x="350" y="370" as="targetPoint" />
            <Array as="points">
              <mxPoint x="350" y="370" />
            </Array>
          </mxGeometry>
        </mxCell>
        <mxCell id="BpnKxdFNf17R3gG-kiFD-89" value="Input" style="edgeLabel;html=1;align=center;verticalAlign=middle;resizable=0;points=[];" vertex="1" connectable="0" parent="BpnKxdFNf17R3gG-kiFD-88">
          <mxGeometry y="4" relative="1" as="geometry">
            <mxPoint as="offset" />
          </mxGeometry>
        </mxCell>
        <mxCell id="BpnKxdFNf17R3gG-kiFD-91" value="" style="endArrow=classic;html=1;rounded=0;entryX=0.583;entryY=0;entryDx=0;entryDy=0;exitX=0;exitY=1;exitDx=0;exitDy=0;entryPerimeter=0;" edge="1" parent="1" source="BpnKxdFNf17R3gG-kiFD-81" target="BpnKxdFNf17R3gG-kiFD-98">
          <mxGeometry width="50" height="50" relative="1" as="geometry">
            <mxPoint x="750" y="300" as="sourcePoint" />
            <mxPoint x="350" y="300" as="targetPoint" />
          </mxGeometry>
        </mxCell>
        <mxCell id="BpnKxdFNf17R3gG-kiFD-92" value="Input" style="edgeLabel;html=1;align=center;verticalAlign=middle;resizable=0;points=[];" vertex="1" connectable="0" parent="BpnKxdFNf17R3gG-kiFD-91">
          <mxGeometry x="-0.0713" y="1" relative="1" as="geometry">
            <mxPoint as="offset" />
          </mxGeometry>
        </mxCell>
        <mxCell id="BpnKxdFNf17R3gG-kiFD-94" value="" style="curved=1;endArrow=classic;html=1;rounded=0;exitX=0.25;exitY=0;exitDx=0;exitDy=0;entryX=1;entryY=0.25;entryDx=0;entryDy=0;" edge="1" parent="1" source="BpnKxdFNf17R3gG-kiFD-84" target="BpnKxdFNf17R3gG-kiFD-98">
          <mxGeometry width="50" height="50" relative="1" as="geometry">
            <mxPoint x="716.96" y="358" as="sourcePoint" />
            <mxPoint x="350" y="337.5" as="targetPoint" />
            <Array as="points">
              <mxPoint x="660" y="320" />
              <mxPoint x="650" y="300" />
              <mxPoint x="610" y="270" />
              <mxPoint x="490" y="350" />
            </Array>
          </mxGeometry>
        </mxCell>
        <mxCell id="BpnKxdFNf17R3gG-kiFD-95" value="Input" style="edgeLabel;html=1;align=center;verticalAlign=middle;resizable=0;points=[];" vertex="1" connectable="0" parent="BpnKxdFNf17R3gG-kiFD-94">
          <mxGeometry x="-0.4475" y="5" relative="1" as="geometry">
            <mxPoint x="3" y="-1" as="offset" />
          </mxGeometry>
        </mxCell>
        <mxCell id="BpnKxdFNf17R3gG-kiFD-97" value="for Feature&lt;br&gt;&amp;nbsp;Learning" style="text;html=1;align=center;verticalAlign=middle;resizable=0;points=[];autosize=1;strokeColor=none;fillColor=none;" vertex="1" parent="1">
          <mxGeometry x="265" y="400" width="80" height="40" as="geometry" />
        </mxCell>
        <mxCell id="BpnKxdFNf17R3gG-kiFD-98" value="GCN" style="rounded=0;whiteSpace=wrap;html=1;" vertex="1" parent="1">
          <mxGeometry x="270" y="330" width="70" height="60" as="geometry" />
        </mxCell>
        <mxCell id="BpnKxdFNf17R3gG-kiFD-100" value="" style="shape=flexArrow;endArrow=classic;html=1;rounded=0;exitX=0;exitY=0.5;exitDx=0;exitDy=0;" edge="1" parent="1" source="BpnKxdFNf17R3gG-kiFD-98">
          <mxGeometry width="50" height="50" relative="1" as="geometry">
            <mxPoint x="610" y="300" as="sourcePoint" />
            <mxPoint x="200" y="360" as="targetPoint" />
          </mxGeometry>
        </mxCell>
        <mxCell id="BpnKxdFNf17R3gG-kiFD-101" value="Classification Layer(SoftMax)" style="rounded=0;whiteSpace=wrap;html=1;" vertex="1" parent="1">
          <mxGeometry x="90" y="330" width="110" height="60" as="geometry" />
        </mxCell>
        <mxCell id="BpnKxdFNf17R3gG-kiFD-102" value="" style="endArrow=classic;html=1;rounded=0;exitX=0.318;exitY=1.017;exitDx=0;exitDy=0;exitPerimeter=0;" edge="1" parent="1" source="BpnKxdFNf17R3gG-kiFD-101">
          <mxGeometry width="50" height="50" relative="1" as="geometry">
            <mxPoint x="140" y="400" as="sourcePoint" />
            <mxPoint x="100" y="440" as="targetPoint" />
          </mxGeometry>
        </mxCell>
        <mxCell id="BpnKxdFNf17R3gG-kiFD-103" value="" style="endArrow=classic;html=1;rounded=0;" edge="1" parent="1">
          <mxGeometry width="50" height="50" relative="1" as="geometry">
            <mxPoint x="130" y="392" as="sourcePoint" />
            <mxPoint x="160" y="440" as="targetPoint" />
          </mxGeometry>
        </mxCell>
        <mxCell id="BpnKxdFNf17R3gG-kiFD-105" value="&lt;b&gt;LGG&lt;/b&gt;" style="text;html=1;align=center;verticalAlign=middle;resizable=0;points=[];autosize=1;strokeColor=none;fillColor=none;" vertex="1" parent="1">
          <mxGeometry x="70" y="440" width="50" height="30" as="geometry" />
        </mxCell>
        <mxCell id="BpnKxdFNf17R3gG-kiFD-106" value="&lt;b&gt;GBM&lt;/b&gt;" style="text;html=1;align=center;verticalAlign=middle;resizable=0;points=[];autosize=1;strokeColor=none;fillColor=none;" vertex="1" parent="1">
          <mxGeometry x="140" y="440" width="50" height="30" as="geometry" />
        </mxCell>
      </root>
    </mxGraphModel>
  </diagram>
</mxfile>
